<svg xmlns="http://www.w3.org/2000/svg" width="780" height="886" viewBox="0 0 780 886" font-family="-apple-system,BlinkMacSystemFont,Segoe UI,Helvetica,Arial,sans-serif" font-size="12">
<title>fugazi vs TA-Lib throughput, lower is better</title>
<rect x="78" y="14" width="10" height="10" rx="2" fill="#9e6a03"/>
<text x="94" y="23" fill="#8b949e">TA-Lib (C)</text>
<rect x="278" y="14" width="10" height="10" rx="2" fill="#1f6feb"/>
<text x="294" y="23" fill="#8b949e">fugazi (Rust)</text>
<rect x="78" y="34" width="10" height="10" rx="2" fill="#e3b341"/>
<text x="94" y="43" fill="#8b949e">talib (Python)</text>
<rect x="278" y="34" width="10" height="10" rx="2" fill="#79c0ff"/>
<text x="294" y="43" fill="#8b949e">fugazi (Python)</text>
<line x1="210.4" y1="68" x2="210.4" y2="856" stroke="#8b949e" stroke-width="0.5" opacity="0.35"/>
<text x="210.4" y="872" fill="#8b949e" text-anchor="middle">1.0x</text>
<line x1="342.8" y1="68" x2="342.8" y2="856" stroke="#8b949e" stroke-width="0.5" opacity="0.35"/>
<text x="342.8" y="872" fill="#8b949e" text-anchor="middle">2.0x</text>
<line x1="475.2" y1="68" x2="475.2" y2="856" stroke="#8b949e" stroke-width="0.5" opacity="0.35"/>
<text x="475.2" y="872" fill="#8b949e" text-anchor="middle">3.0x</text>
<line x1="607.6" y1="68" x2="607.6" y2="856" stroke="#8b949e" stroke-width="0.5" opacity="0.35"/>
<text x="607.6" y="872" fill="#8b949e" text-anchor="middle">4.0x</text>
<line x1="740.0" y1="68" x2="740.0" y2="856" stroke="#8b949e" stroke-width="0.5" opacity="0.35"/>
<text x="740.0" y="872" fill="#8b949e" text-anchor="middle">5.0x</text>
<line x1="78" y1="58" x2="740" y2="58" stroke="#8b949e" stroke-width="0.5" opacity="0.25"/>
<text x="78" y="71" fill="#8b949e" font-size="11" opacity="0.85">single output</text>
<text x="68" y="106" fill="#8b949e" text-anchor="end" font-family="ui-monospace,SFMono-Regular,Consolas,monospace">sma</text>
<rect x="78" y="76" width="132.4" height="11" rx="2" fill="#9e6a03"/>
<line x1="210.4" y1="81.5" x2="213.5" y2="81.5" stroke="#8b949e" stroke-width="1" opacity="0.8"/>
<line x1="213.5" y1="78.0" x2="213.5" y2="85.0" stroke="#8b949e" stroke-width="1" opacity="0.8"/>
<text x="205.4" y="86" fill="#ffffff" text-anchor="end" font-size="11">1.00x</text>
<rect x="78" y="90" width="133.3" height="11" rx="2" fill="#1f6feb"/>
<text x="206.3" y="100" fill="#ffffff" text-anchor="end" font-size="11">1.01x</text>
<rect x="78" y="104" width="139.6" height="11" rx="2" fill="#e3b341"/>
<line x1="217.6" y1="109.5" x2="219.9" y2="109.5" stroke="#8b949e" stroke-width="1" opacity="0.8"/>
<line x1="219.9" y1="106.0" x2="219.9" y2="113.0" stroke="#8b949e" stroke-width="1" opacity="0.8"/>
<text x="212.6" y="114" fill="#ffffff" text-anchor="end" font-size="11">1.05x</text>
<rect x="78" y="118" width="211.3" height="11" rx="2" fill="#79c0ff"/>
<line x1="289.3" y1="123.5" x2="296.7" y2="123.5" stroke="#8b949e" stroke-width="1" opacity="0.8"/>
<line x1="296.7" y1="120.0" x2="296.7" y2="127.0" stroke="#8b949e" stroke-width="1" opacity="0.8"/>
<text x="284.3" y="128" fill="#ffffff" text-anchor="end" font-size="11">1.60x</text>
<text x="68" y="177" fill="#8b949e" text-anchor="end" font-family="ui-monospace,SFMono-Regular,Consolas,monospace">ema</text>
<rect x="78" y="147" width="132.4" height="11" rx="2" fill="#9e6a03"/>
<line x1="210.4" y1="152.5" x2="212.7" y2="152.5" stroke="#8b949e" stroke-width="1" opacity="0.8"/>
<line x1="212.7" y1="149.0" x2="212.7" y2="156.0" stroke="#8b949e" stroke-width="1" opacity="0.8"/>
<text x="205.4" y="157" fill="#ffffff" text-anchor="end" font-size="11">1.00x</text>
<rect x="78" y="161" width="88.7" height="11" rx="2" fill="#1f6feb"/>
<text x="161.7" y="171" fill="#ffffff" text-anchor="end" font-size="11">0.67x</text>
<rect x="78" y="175" width="136.1" height="11" rx="2" fill="#e3b341"/>
<line x1="214.1" y1="180.5" x2="216.3" y2="180.5" stroke="#8b949e" stroke-width="1" opacity="0.8"/>
<line x1="216.3" y1="177.0" x2="216.3" y2="184.0" stroke="#8b949e" stroke-width="1" opacity="0.8"/>
<text x="209.1" y="185" fill="#ffffff" text-anchor="end" font-size="11">1.03x</text>
<rect x="78" y="189" width="133.6" height="11" rx="2" fill="#79c0ff"/>
<line x1="211.6" y1="194.5" x2="213.8" y2="194.5" stroke="#8b949e" stroke-width="1" opacity="0.8"/>
<line x1="213.8" y1="191.0" x2="213.8" y2="198.0" stroke="#8b949e" stroke-width="1" opacity="0.8"/>
<text x="206.6" y="199" fill="#ffffff" text-anchor="end" font-size="11">1.01x</text>
<text x="68" y="248" fill="#8b949e" text-anchor="end" font-family="ui-monospace,SFMono-Regular,Consolas,monospace">rsi</text>
<rect x="78" y="218" width="132.4" height="11" rx="2" fill="#9e6a03"/>
<text x="205.4" y="228" fill="#ffffff" text-anchor="end" font-size="11">1.00x</text>
<rect x="78" y="232" width="129.3" height="11" rx="2" fill="#1f6feb"/>
<text x="202.3" y="242" fill="#ffffff" text-anchor="end" font-size="11">0.98x</text>
<rect x="78" y="246" width="134.0" height="11" rx="2" fill="#e3b341"/>
<text x="207.0" y="256" fill="#ffffff" text-anchor="end" font-size="11">1.01x</text>
<rect x="78" y="260" width="152.6" height="11" rx="2" fill="#79c0ff"/>
<line x1="230.6" y1="265.5" x2="232.8" y2="265.5" stroke="#8b949e" stroke-width="1" opacity="0.8"/>
<line x1="232.8" y1="262.0" x2="232.8" y2="269.0" stroke="#8b949e" stroke-width="1" opacity="0.8"/>
<text x="225.6" y="270" fill="#ffffff" text-anchor="end" font-size="11">1.15x</text>
<text x="68" y="319" fill="#8b949e" text-anchor="end" font-family="ui-monospace,SFMono-Regular,Consolas,monospace">atr</text>
<rect x="78" y="289" width="132.4" height="11" rx="2" fill="#9e6a03"/>
<line x1="210.4" y1="294.5" x2="212.8" y2="294.5" stroke="#8b949e" stroke-width="1" opacity="0.8"/>
<line x1="212.8" y1="291.0" x2="212.8" y2="298.0" stroke="#8b949e" stroke-width="1" opacity="0.8"/>
<text x="205.4" y="299" fill="#ffffff" text-anchor="end" font-size="11">1.00x</text>
<rect x="78" y="303" width="120.0" height="11" rx="2" fill="#1f6feb"/>
<text x="193.0" y="313" fill="#ffffff" text-anchor="end" font-size="11">0.91x</text>
<rect x="78" y="317" width="341.8" height="11" rx="2" fill="#e3b341"/>
<line x1="419.8" y1="322.5" x2="431.0" y2="322.5" stroke="#8b949e" stroke-width="1" opacity="0.8"/>
<line x1="431.0" y1="319.0" x2="431.0" y2="326.0" stroke="#8b949e" stroke-width="1" opacity="0.8"/>
<text x="414.8" y="327" fill="#ffffff" text-anchor="end" font-size="11">2.58x</text>
<rect x="78" y="331" width="172.8" height="11" rx="2" fill="#79c0ff"/>
<line x1="250.8" y1="336.5" x2="254.3" y2="336.5" stroke="#8b949e" stroke-width="1" opacity="0.8"/>
<line x1="254.3" y1="333.0" x2="254.3" y2="340.0" stroke="#8b949e" stroke-width="1" opacity="0.8"/>
<text x="245.8" y="341" fill="#ffffff" text-anchor="end" font-size="11">1.30x</text>
<line x1="78" y1="364" x2="740" y2="364" stroke="#8b949e" stroke-width="0.5" opacity="0.25"/>
<text x="78" y="377" fill="#8b949e" font-size="11" opacity="0.85">multi-output — every line, one pass</text>
<text x="68" y="412" fill="#8b949e" text-anchor="end" font-family="ui-monospace,SFMono-Regular,Consolas,monospace">macd</text>
<rect x="78" y="382" width="132.4" height="11" rx="2" fill="#9e6a03"/>
<line x1="210.4" y1="387.5" x2="212.0" y2="387.5" stroke="#8b949e" stroke-width="1" opacity="0.8"/>
<line x1="212.0" y1="384.0" x2="212.0" y2="391.0" stroke="#8b949e" stroke-width="1" opacity="0.8"/>
<text x="205.4" y="392" fill="#ffffff" text-anchor="end" font-size="11">1.00x</text>
<rect x="78" y="396" width="15.6" height="11" rx="2" fill="#1f6feb"/>
<text x="98.7" y="406" fill="#8b949e" font-size="11">0.12x</text>
<rect x="78" y="410" width="224.8" height="11" rx="2" fill="#e3b341"/>
<line x1="302.8" y1="415.5" x2="308.2" y2="415.5" stroke="#8b949e" stroke-width="1" opacity="0.8"/>
<line x1="308.2" y1="412.0" x2="308.2" y2="419.0" stroke="#8b949e" stroke-width="1" opacity="0.8"/>
<text x="297.8" y="420" fill="#ffffff" text-anchor="end" font-size="11">1.70x</text>
<rect x="78" y="424" width="57.0" height="11" rx="2" fill="#79c0ff"/>
<line x1="135.0" y1="429.5" x2="136.6" y2="429.5" stroke="#8b949e" stroke-width="1" opacity="0.8"/>
<line x1="136.6" y1="426.0" x2="136.6" y2="433.0" stroke="#8b949e" stroke-width="1" opacity="0.8"/>
<text x="130.0" y="434" fill="#ffffff" text-anchor="end" font-size="11">0.43x</text>
<text x="68" y="483" fill="#8b949e" text-anchor="end" font-family="ui-monospace,SFMono-Regular,Consolas,monospace">dmi</text>
<rect x="78" y="453" width="132.4" height="11" rx="2" fill="#9e6a03"/>
<line x1="210.4" y1="458.5" x2="214.0" y2="458.5" stroke="#8b949e" stroke-width="1" opacity="0.8"/>
<line x1="214.0" y1="455.0" x2="214.0" y2="462.0" stroke="#8b949e" stroke-width="1" opacity="0.8"/>
<text x="205.4" y="463" fill="#ffffff" text-anchor="end" font-size="11">1.00x</text>
<rect x="78" y="467" width="77.5" height="11" rx="2" fill="#1f6feb"/>
<line x1="155.5" y1="472.5" x2="158.2" y2="472.5" stroke="#8b949e" stroke-width="1" opacity="0.8"/>
<line x1="158.2" y1="469.0" x2="158.2" y2="476.0" stroke="#8b949e" stroke-width="1" opacity="0.8"/>
<text x="150.5" y="477" fill="#ffffff" text-anchor="end" font-size="11">0.59x</text>
<rect x="78" y="481" width="246.2" height="11" rx="2" fill="#e3b341"/>
<line x1="324.2" y1="486.5" x2="327.9" y2="486.5" stroke="#8b949e" stroke-width="1" opacity="0.8"/>
<line x1="327.9" y1="483.0" x2="327.9" y2="490.0" stroke="#8b949e" stroke-width="1" opacity="0.8"/>
<text x="319.2" y="491" fill="#ffffff" text-anchor="end" font-size="11">1.86x</text>
<rect x="78" y="495" width="183.2" height="11" rx="2" fill="#79c0ff"/>
<line x1="261.2" y1="500.5" x2="268.2" y2="500.5" stroke="#8b949e" stroke-width="1" opacity="0.8"/>
<line x1="268.2" y1="497.0" x2="268.2" y2="504.0" stroke="#8b949e" stroke-width="1" opacity="0.8"/>
<text x="256.2" y="505" fill="#ffffff" text-anchor="end" font-size="11">1.38x</text>
<text x="68" y="554" fill="#8b949e" text-anchor="end" font-family="ui-monospace,SFMono-Regular,Consolas,monospace">adx</text>
<rect x="78" y="524" width="132.4" height="11" rx="2" fill="#9e6a03"/>
<line x1="210.4" y1="529.5" x2="212.5" y2="529.5" stroke="#8b949e" stroke-width="1" opacity="0.8"/>
<line x1="212.5" y1="526.0" x2="212.5" y2="533.0" stroke="#8b949e" stroke-width="1" opacity="0.8"/>
<text x="205.4" y="534" fill="#ffffff" text-anchor="end" font-size="11">1.00x</text>
<rect x="78" y="538" width="81.7" height="11" rx="2" fill="#1f6feb"/>
<line x1="159.7" y1="543.5" x2="161.5" y2="543.5" stroke="#8b949e" stroke-width="1" opacity="0.8"/>
<line x1="161.5" y1="540.0" x2="161.5" y2="547.0" stroke="#8b949e" stroke-width="1" opacity="0.8"/>
<text x="154.7" y="548" fill="#ffffff" text-anchor="end" font-size="11">0.62x</text>
<rect x="78" y="552" width="203.8" height="11" rx="2" fill="#e3b341"/>
<line x1="281.8" y1="557.5" x2="287.0" y2="557.5" stroke="#8b949e" stroke-width="1" opacity="0.8"/>
<line x1="287.0" y1="554.0" x2="287.0" y2="561.0" stroke="#8b949e" stroke-width="1" opacity="0.8"/>
<text x="276.8" y="562" fill="#ffffff" text-anchor="end" font-size="11">1.54x</text>
<rect x="78" y="566" width="217.9" height="11" rx="2" fill="#79c0ff"/>
<line x1="295.9" y1="571.5" x2="302.1" y2="571.5" stroke="#8b949e" stroke-width="1" opacity="0.8"/>
<line x1="302.1" y1="568.0" x2="302.1" y2="575.0" stroke="#8b949e" stroke-width="1" opacity="0.8"/>
<text x="290.9" y="576" fill="#ffffff" text-anchor="end" font-size="11">1.65x</text>
<text x="68" y="625" fill="#8b949e" text-anchor="end" font-family="ui-monospace,SFMono-Regular,Consolas,monospace">aroon</text>
<rect x="78" y="595" width="132.4" height="11" rx="2" fill="#9e6a03"/>
<line x1="210.4" y1="600.5" x2="217.8" y2="600.5" stroke="#8b949e" stroke-width="1" opacity="0.8"/>
<line x1="217.8" y1="597.0" x2="217.8" y2="604.0" stroke="#8b949e" stroke-width="1" opacity="0.8"/>
<text x="205.4" y="605" fill="#ffffff" text-anchor="end" font-size="11">1.00x</text>
<rect x="78" y="609" width="143.1" height="11" rx="2" fill="#1f6feb"/>
<line x1="221.1" y1="614.5" x2="232.2" y2="614.5" stroke="#8b949e" stroke-width="1" opacity="0.8"/>
<line x1="232.2" y1="611.0" x2="232.2" y2="618.0" stroke="#8b949e" stroke-width="1" opacity="0.8"/>
<text x="216.1" y="619" fill="#ffffff" text-anchor="end" font-size="11">1.08x</text>
<rect x="78" y="623" width="252.3" height="11" rx="2" fill="#e3b341"/>
<line x1="330.3" y1="628.5" x2="334.6" y2="628.5" stroke="#8b949e" stroke-width="1" opacity="0.8"/>
<line x1="334.6" y1="625.0" x2="334.6" y2="632.0" stroke="#8b949e" stroke-width="1" opacity="0.8"/>
<text x="325.3" y="633" fill="#ffffff" text-anchor="end" font-size="11">1.91x</text>
<rect x="78" y="637" width="337.1" height="11" rx="2" fill="#79c0ff"/>
<line x1="415.1" y1="642.5" x2="421.7" y2="642.5" stroke="#8b949e" stroke-width="1" opacity="0.8"/>
<line x1="421.7" y1="639.0" x2="421.7" y2="646.0" stroke="#8b949e" stroke-width="1" opacity="0.8"/>
<text x="410.1" y="647" fill="#ffffff" text-anchor="end" font-size="11">2.55x</text>
<line x1="78" y1="670" x2="740" y2="670" stroke="#8b949e" stroke-width="0.5" opacity="0.25"/>
<text x="78" y="683" fill="#8b949e" font-size="11" opacity="0.85">centred variance — accuracy bought with speed</text>
<text x="68" y="718" fill="#8b949e" text-anchor="end" font-family="ui-monospace,SFMono-Regular,Consolas,monospace">stddev</text>
<rect x="78" y="688" width="132.4" height="11" rx="2" fill="#9e6a03"/>
<text x="205.4" y="698" fill="#ffffff" text-anchor="end" font-size="11">1.00x</text>
<rect x="78" y="702" width="429.9" height="11" rx="2" fill="#1f6feb"/>
<line x1="507.9" y1="707.5" x2="517.0" y2="707.5" stroke="#8b949e" stroke-width="1" opacity="0.8"/>
<line x1="517.0" y1="704.0" x2="517.0" y2="711.0" stroke="#8b949e" stroke-width="1" opacity="0.8"/>
<text x="502.9" y="712" fill="#ffffff" text-anchor="end" font-size="11">3.25x</text>
<rect x="78" y="716" width="138.9" height="11" rx="2" fill="#e3b341"/>
<line x1="216.9" y1="721.5" x2="218.4" y2="721.5" stroke="#8b949e" stroke-width="1" opacity="0.8"/>
<line x1="218.4" y1="718.0" x2="218.4" y2="725.0" stroke="#8b949e" stroke-width="1" opacity="0.8"/>
<text x="211.9" y="726" fill="#ffffff" text-anchor="end" font-size="11">1.05x</text>
<rect x="78" y="730" width="515.5" height="11" rx="2" fill="#79c0ff"/>
<line x1="593.5" y1="735.5" x2="601.6" y2="735.5" stroke="#8b949e" stroke-width="1" opacity="0.8"/>
<line x1="601.6" y1="732.0" x2="601.6" y2="739.0" stroke="#8b949e" stroke-width="1" opacity="0.8"/>
<text x="588.5" y="740" fill="#ffffff" text-anchor="end" font-size="11">3.89x</text>
<text x="68" y="789" fill="#8b949e" text-anchor="end" font-family="ui-monospace,SFMono-Regular,Consolas,monospace">bbands</text>
<rect x="78" y="759" width="132.4" height="11" rx="2" fill="#9e6a03"/>
<text x="205.4" y="769" fill="#ffffff" text-anchor="end" font-size="11">1.00x</text>
<rect x="78" y="773" width="445.3" height="11" rx="2" fill="#1f6feb"/>
<line x1="523.3" y1="778.5" x2="534.1" y2="778.5" stroke="#8b949e" stroke-width="1" opacity="0.8"/>
<line x1="534.1" y1="775.0" x2="534.1" y2="782.0" stroke="#8b949e" stroke-width="1" opacity="0.8"/>
<text x="518.3" y="783" fill="#ffffff" text-anchor="end" font-size="11">3.36x</text>
<rect x="78" y="787" width="385.1" height="11" rx="2" fill="#e3b341"/>
<line x1="463.1" y1="792.5" x2="477.3" y2="792.5" stroke="#8b949e" stroke-width="1" opacity="0.8"/>
<line x1="477.3" y1="789.0" x2="477.3" y2="796.0" stroke="#8b949e" stroke-width="1" opacity="0.8"/>
<text x="458.1" y="797" fill="#ffffff" text-anchor="end" font-size="11">2.91x</text>
<rect x="78" y="801" width="662.0" height="11" rx="2" fill="#79c0ff"/>
<text x="735.0" y="811" fill="#ffffff" text-anchor="end" font-size="11">5.25x &#8250;</text>
</svg>
