<svg xmlns="http://www.w3.org/2000/svg" width="780" height="864" viewBox="0 0 780 864" font-family="-apple-system,BlinkMacSystemFont,Segoe UI,Helvetica,Arial,sans-serif" font-size="12">
<title>fugazi vs TA-Lib throughput, lower is better</title>
<rect x="78" y="14" width="10" height="10" rx="2" fill="#9e6a03"/>
<text x="94" y="23" fill="#8b949e">TA-Lib (C)</text>
<rect x="278" y="14" width="10" height="10" rx="2" fill="#1f6feb"/>
<text x="294" y="23" fill="#8b949e">fugazi (Rust)</text>
<rect x="78" y="34" width="10" height="10" rx="2" fill="#e3b341"/>
<text x="94" y="43" fill="#8b949e">talib (Python)</text>
<rect x="278" y="34" width="10" height="10" rx="2" fill="#79c0ff"/>
<text x="294" y="43" fill="#8b949e">fugazi (Python)</text>
<line x1="210.4" y1="68" x2="210.4" y2="834" stroke="#8b949e" stroke-width="0.5" opacity="0.35"/>
<text x="210.4" y="850" fill="#8b949e" text-anchor="middle">1.0x</text>
<line x1="342.8" y1="68" x2="342.8" y2="834" stroke="#8b949e" stroke-width="0.5" opacity="0.35"/>
<text x="342.8" y="850" fill="#8b949e" text-anchor="middle">2.0x</text>
<line x1="475.2" y1="68" x2="475.2" y2="834" stroke="#8b949e" stroke-width="0.5" opacity="0.35"/>
<text x="475.2" y="850" fill="#8b949e" text-anchor="middle">3.0x</text>
<line x1="607.6" y1="68" x2="607.6" y2="834" stroke="#8b949e" stroke-width="0.5" opacity="0.35"/>
<text x="607.6" y="850" fill="#8b949e" text-anchor="middle">4.0x</text>
<line x1="740.0" y1="68" x2="740.0" y2="834" stroke="#8b949e" stroke-width="0.5" opacity="0.35"/>
<text x="740.0" y="850" fill="#8b949e" text-anchor="middle">5.0x</text>
<line x1="78" y1="58" x2="740" y2="58" stroke="#8b949e" stroke-width="0.5" opacity="0.25"/>
<text x="78" y="71" fill="#8b949e" font-size="11" opacity="0.85">single output</text>
<text x="68" y="106" fill="#8b949e" text-anchor="end" font-family="ui-monospace,SFMono-Regular,Consolas,monospace">sma</text>
<rect x="78" y="76" width="132.4" height="11" rx="2" fill="#9e6a03"/>
<line x1="210.4" y1="81.5" x2="216.6" y2="81.5" stroke="#8b949e" stroke-width="1" opacity="0.8"/>
<line x1="216.6" y1="78.0" x2="216.6" y2="85.0" stroke="#8b949e" stroke-width="1" opacity="0.8"/>
<text x="205.4" y="86" fill="#ffffff" text-anchor="end" font-size="11">1.00x</text>
<rect x="78" y="90" width="131.4" height="11" rx="2" fill="#1f6feb"/>
<line x1="209.4" y1="95.5" x2="215.7" y2="95.5" stroke="#8b949e" stroke-width="1" opacity="0.8"/>
<line x1="215.7" y1="92.0" x2="215.7" y2="99.0" stroke="#8b949e" stroke-width="1" opacity="0.8"/>
<text x="204.4" y="100" fill="#ffffff" text-anchor="end" font-size="11">0.99x</text>
<rect x="78" y="104" width="142.7" height="11" rx="2" fill="#e3b341"/>
<line x1="220.7" y1="109.5" x2="223.4" y2="109.5" stroke="#8b949e" stroke-width="1" opacity="0.8"/>
<line x1="223.4" y1="106.0" x2="223.4" y2="113.0" stroke="#8b949e" stroke-width="1" opacity="0.8"/>
<text x="215.7" y="114" fill="#ffffff" text-anchor="end" font-size="11">1.08x</text>
<rect x="78" y="118" width="222.7" height="11" rx="2" fill="#79c0ff"/>
<line x1="300.7" y1="123.5" x2="307.1" y2="123.5" stroke="#8b949e" stroke-width="1" opacity="0.8"/>
<line x1="307.1" y1="120.0" x2="307.1" y2="127.0" stroke="#8b949e" stroke-width="1" opacity="0.8"/>
<text x="295.7" y="128" fill="#ffffff" text-anchor="end" font-size="11">1.68x</text>
<text x="68" y="177" fill="#8b949e" text-anchor="end" font-family="ui-monospace,SFMono-Regular,Consolas,monospace">ema</text>
<rect x="78" y="147" width="132.4" height="11" rx="2" fill="#9e6a03"/>
<line x1="210.4" y1="152.5" x2="213.5" y2="152.5" stroke="#8b949e" stroke-width="1" opacity="0.8"/>
<line x1="213.5" y1="149.0" x2="213.5" y2="156.0" stroke="#8b949e" stroke-width="1" opacity="0.8"/>
<text x="205.4" y="157" fill="#ffffff" text-anchor="end" font-size="11">1.00x</text>
<rect x="78" y="161" width="92.9" height="11" rx="2" fill="#1f6feb"/>
<line x1="170.9" y1="166.5" x2="172.8" y2="166.5" stroke="#8b949e" stroke-width="1" opacity="0.8"/>
<line x1="172.8" y1="163.0" x2="172.8" y2="170.0" stroke="#8b949e" stroke-width="1" opacity="0.8"/>
<text x="165.9" y="171" fill="#ffffff" text-anchor="end" font-size="11">0.70x</text>
<rect x="78" y="175" width="140.0" height="11" rx="2" fill="#e3b341"/>
<line x1="218.0" y1="180.5" x2="220.5" y2="180.5" stroke="#8b949e" stroke-width="1" opacity="0.8"/>
<line x1="220.5" y1="177.0" x2="220.5" y2="184.0" stroke="#8b949e" stroke-width="1" opacity="0.8"/>
<text x="213.0" y="185" fill="#ffffff" text-anchor="end" font-size="11">1.06x</text>
<rect x="78" y="189" width="135.1" height="11" rx="2" fill="#79c0ff"/>
<line x1="213.1" y1="194.5" x2="220.1" y2="194.5" stroke="#8b949e" stroke-width="1" opacity="0.8"/>
<line x1="220.1" y1="191.0" x2="220.1" y2="198.0" stroke="#8b949e" stroke-width="1" opacity="0.8"/>
<text x="208.1" y="199" fill="#ffffff" text-anchor="end" font-size="11">1.02x</text>
<text x="68" y="248" fill="#8b949e" text-anchor="end" font-family="ui-monospace,SFMono-Regular,Consolas,monospace">rsi</text>
<rect x="78" y="218" width="132.4" height="11" rx="2" fill="#9e6a03"/>
<line x1="210.4" y1="223.5" x2="212.8" y2="223.5" stroke="#8b949e" stroke-width="1" opacity="0.8"/>
<line x1="212.8" y1="220.0" x2="212.8" y2="227.0" stroke="#8b949e" stroke-width="1" opacity="0.8"/>
<text x="205.4" y="228" fill="#ffffff" text-anchor="end" font-size="11">1.00x</text>
<rect x="78" y="232" width="137.3" height="11" rx="2" fill="#1f6feb"/>
<text x="210.3" y="242" fill="#ffffff" text-anchor="end" font-size="11">1.04x</text>
<rect x="78" y="246" width="133.0" height="11" rx="2" fill="#e3b341"/>
<line x1="211.0" y1="251.5" x2="214.8" y2="251.5" stroke="#8b949e" stroke-width="1" opacity="0.8"/>
<line x1="214.8" y1="248.0" x2="214.8" y2="255.0" stroke="#8b949e" stroke-width="1" opacity="0.8"/>
<text x="206.0" y="256" fill="#ffffff" text-anchor="end" font-size="11">1.00x</text>
<rect x="78" y="260" width="154.2" height="11" rx="2" fill="#79c0ff"/>
<line x1="232.2" y1="265.5" x2="235.4" y2="265.5" stroke="#8b949e" stroke-width="1" opacity="0.8"/>
<line x1="235.4" y1="262.0" x2="235.4" y2="269.0" stroke="#8b949e" stroke-width="1" opacity="0.8"/>
<text x="227.2" y="270" fill="#ffffff" text-anchor="end" font-size="11">1.16x</text>
<text x="68" y="319" fill="#8b949e" text-anchor="end" font-family="ui-monospace,SFMono-Regular,Consolas,monospace">atr</text>
<rect x="78" y="289" width="132.4" height="11" rx="2" fill="#9e6a03"/>
<line x1="210.4" y1="294.5" x2="218.1" y2="294.5" stroke="#8b949e" stroke-width="1" opacity="0.8"/>
<line x1="218.1" y1="291.0" x2="218.1" y2="298.0" stroke="#8b949e" stroke-width="1" opacity="0.8"/>
<text x="205.4" y="299" fill="#ffffff" text-anchor="end" font-size="11">1.00x</text>
<rect x="78" y="303" width="125.2" height="11" rx="2" fill="#1f6feb"/>
<text x="198.2" y="313" fill="#ffffff" text-anchor="end" font-size="11">0.95x</text>
<rect x="78" y="317" width="326.6" height="11" rx="2" fill="#e3b341"/>
<line x1="404.6" y1="322.5" x2="431.7" y2="322.5" stroke="#8b949e" stroke-width="1" opacity="0.8"/>
<line x1="431.7" y1="319.0" x2="431.7" y2="326.0" stroke="#8b949e" stroke-width="1" opacity="0.8"/>
<text x="399.6" y="327" fill="#ffffff" text-anchor="end" font-size="11">2.47x</text>
<rect x="78" y="331" width="153.6" height="11" rx="2" fill="#79c0ff"/>
<line x1="231.6" y1="336.5" x2="239.3" y2="336.5" stroke="#8b949e" stroke-width="1" opacity="0.8"/>
<line x1="239.3" y1="333.0" x2="239.3" y2="340.0" stroke="#8b949e" stroke-width="1" opacity="0.8"/>
<text x="226.6" y="341" fill="#ffffff" text-anchor="end" font-size="11">1.16x</text>
<text x="68" y="390" fill="#8b949e" text-anchor="end" font-family="ui-monospace,SFMono-Regular,Consolas,monospace">stddev</text>
<rect x="78" y="360" width="132.4" height="11" rx="2" fill="#9e6a03"/>
<line x1="210.4" y1="365.5" x2="214.2" y2="365.5" stroke="#8b949e" stroke-width="1" opacity="0.8"/>
<line x1="214.2" y1="362.0" x2="214.2" y2="369.0" stroke="#8b949e" stroke-width="1" opacity="0.8"/>
<text x="205.4" y="370" fill="#ffffff" text-anchor="end" font-size="11">1.00x</text>
<rect x="78" y="374" width="459.7" height="11" rx="2" fill="#1f6feb"/>
<line x1="537.7" y1="379.5" x2="550.2" y2="379.5" stroke="#8b949e" stroke-width="1" opacity="0.8"/>
<line x1="550.2" y1="376.0" x2="550.2" y2="383.0" stroke="#8b949e" stroke-width="1" opacity="0.8"/>
<text x="532.7" y="384" fill="#ffffff" text-anchor="end" font-size="11">3.47x</text>
<rect x="78" y="388" width="143.8" height="11" rx="2" fill="#e3b341"/>
<line x1="221.8" y1="393.5" x2="226.0" y2="393.5" stroke="#8b949e" stroke-width="1" opacity="0.8"/>
<line x1="226.0" y1="390.0" x2="226.0" y2="397.0" stroke="#8b949e" stroke-width="1" opacity="0.8"/>
<text x="216.8" y="398" fill="#ffffff" text-anchor="end" font-size="11">1.09x</text>
<rect x="78" y="402" width="510.1" height="11" rx="2" fill="#79c0ff"/>
<line x1="588.1" y1="407.5" x2="605.7" y2="407.5" stroke="#8b949e" stroke-width="1" opacity="0.8"/>
<line x1="605.7" y1="404.0" x2="605.7" y2="411.0" stroke="#8b949e" stroke-width="1" opacity="0.8"/>
<text x="583.1" y="412" fill="#ffffff" text-anchor="end" font-size="11">3.85x</text>
<line x1="78" y1="435" x2="740" y2="435" stroke="#8b949e" stroke-width="0.5" opacity="0.25"/>
<text x="78" y="448" fill="#8b949e" font-size="11" opacity="0.85">multi-output — every line, one pass</text>
<text x="68" y="483" fill="#8b949e" text-anchor="end" font-family="ui-monospace,SFMono-Regular,Consolas,monospace">macd</text>
<rect x="78" y="453" width="132.4" height="11" rx="2" fill="#9e6a03"/>
<line x1="210.4" y1="458.5" x2="230.2" y2="458.5" stroke="#8b949e" stroke-width="1" opacity="0.8"/>
<line x1="230.2" y1="455.0" x2="230.2" y2="462.0" stroke="#8b949e" stroke-width="1" opacity="0.8"/>
<text x="205.4" y="463" fill="#ffffff" text-anchor="end" font-size="11">1.00x</text>
<rect x="78" y="467" width="15.6" height="11" rx="2" fill="#1f6feb"/>
<text x="98.9" y="477" fill="#8b949e" font-size="11">0.12x</text>
<rect x="78" y="481" width="214.0" height="11" rx="2" fill="#e3b341"/>
<line x1="292.0" y1="486.5" x2="309.3" y2="486.5" stroke="#8b949e" stroke-width="1" opacity="0.8"/>
<line x1="309.3" y1="483.0" x2="309.3" y2="490.0" stroke="#8b949e" stroke-width="1" opacity="0.8"/>
<text x="287.0" y="491" fill="#ffffff" text-anchor="end" font-size="11">1.62x</text>
<rect x="78" y="495" width="217.6" height="11" rx="2" fill="#79c0ff"/>
<line x1="295.6" y1="500.5" x2="313.7" y2="500.5" stroke="#8b949e" stroke-width="1" opacity="0.8"/>
<line x1="313.7" y1="497.0" x2="313.7" y2="504.0" stroke="#8b949e" stroke-width="1" opacity="0.8"/>
<text x="290.6" y="505" fill="#ffffff" text-anchor="end" font-size="11">1.64x</text>
<text x="68" y="554" fill="#8b949e" text-anchor="end" font-family="ui-monospace,SFMono-Regular,Consolas,monospace">bbands</text>
<rect x="78" y="524" width="132.4" height="11" rx="2" fill="#9e6a03"/>
<line x1="210.4" y1="529.5" x2="224.1" y2="529.5" stroke="#8b949e" stroke-width="1" opacity="0.8"/>
<line x1="224.1" y1="526.0" x2="224.1" y2="533.0" stroke="#8b949e" stroke-width="1" opacity="0.8"/>
<text x="205.4" y="534" fill="#ffffff" text-anchor="end" font-size="11">1.00x</text>
<rect x="78" y="538" width="444.3" height="11" rx="2" fill="#1f6feb"/>
<line x1="522.3" y1="543.5" x2="531.4" y2="543.5" stroke="#8b949e" stroke-width="1" opacity="0.8"/>
<line x1="531.4" y1="540.0" x2="531.4" y2="547.0" stroke="#8b949e" stroke-width="1" opacity="0.8"/>
<text x="517.3" y="548" fill="#ffffff" text-anchor="end" font-size="11">3.36x</text>
<rect x="78" y="552" width="362.0" height="11" rx="2" fill="#e3b341"/>
<line x1="440.0" y1="557.5" x2="474.0" y2="557.5" stroke="#8b949e" stroke-width="1" opacity="0.8"/>
<line x1="474.0" y1="554.0" x2="474.0" y2="561.0" stroke="#8b949e" stroke-width="1" opacity="0.8"/>
<text x="435.0" y="562" fill="#ffffff" text-anchor="end" font-size="11">2.73x</text>
<rect x="78" y="566" width="662.0" height="11" rx="2" fill="#79c0ff"/>
<text x="735.0" y="576" fill="#ffffff" text-anchor="end" font-size="11">10.82x &#8250;</text>
<text x="68" y="625" fill="#8b949e" text-anchor="end" font-family="ui-monospace,SFMono-Regular,Consolas,monospace">aroon</text>
<rect x="78" y="595" width="132.4" height="11" rx="2" fill="#9e6a03"/>
<line x1="210.4" y1="600.5" x2="220.9" y2="600.5" stroke="#8b949e" stroke-width="1" opacity="0.8"/>
<line x1="220.9" y1="597.0" x2="220.9" y2="604.0" stroke="#8b949e" stroke-width="1" opacity="0.8"/>
<text x="205.4" y="605" fill="#ffffff" text-anchor="end" font-size="11">1.00x</text>
<rect x="78" y="609" width="151.7" height="11" rx="2" fill="#1f6feb"/>
<line x1="229.7" y1="614.5" x2="235.5" y2="614.5" stroke="#8b949e" stroke-width="1" opacity="0.8"/>
<line x1="235.5" y1="611.0" x2="235.5" y2="618.0" stroke="#8b949e" stroke-width="1" opacity="0.8"/>
<text x="224.7" y="619" fill="#ffffff" text-anchor="end" font-size="11">1.15x</text>
<rect x="78" y="623" width="235.0" height="11" rx="2" fill="#e3b341"/>
<line x1="313.0" y1="628.5" x2="328.8" y2="628.5" stroke="#8b949e" stroke-width="1" opacity="0.8"/>
<line x1="328.8" y1="625.0" x2="328.8" y2="632.0" stroke="#8b949e" stroke-width="1" opacity="0.8"/>
<text x="308.0" y="633" fill="#ffffff" text-anchor="end" font-size="11">1.77x</text>
<rect x="78" y="637" width="596.2" height="11" rx="2" fill="#79c0ff"/>
<line x1="674.2" y1="642.5" x2="702.9" y2="642.5" stroke="#8b949e" stroke-width="1" opacity="0.8"/>
<line x1="702.9" y1="639.0" x2="702.9" y2="646.0" stroke="#8b949e" stroke-width="1" opacity="0.8"/>
<text x="669.2" y="647" fill="#ffffff" text-anchor="end" font-size="11">4.50x</text>
<text x="68" y="696" fill="#8b949e" text-anchor="end" font-family="ui-monospace,SFMono-Regular,Consolas,monospace">dmi</text>
<rect x="78" y="666" width="132.4" height="11" rx="2" fill="#9e6a03"/>
<line x1="210.4" y1="671.5" x2="223.8" y2="671.5" stroke="#8b949e" stroke-width="1" opacity="0.8"/>
<line x1="223.8" y1="668.0" x2="223.8" y2="675.0" stroke="#8b949e" stroke-width="1" opacity="0.8"/>
<text x="205.4" y="676" fill="#ffffff" text-anchor="end" font-size="11">1.00x</text>
<rect x="78" y="680" width="83.4" height="11" rx="2" fill="#1f6feb"/>
<line x1="161.4" y1="685.5" x2="165.7" y2="685.5" stroke="#8b949e" stroke-width="1" opacity="0.8"/>
<line x1="165.7" y1="682.0" x2="165.7" y2="689.0" stroke="#8b949e" stroke-width="1" opacity="0.8"/>
<text x="156.4" y="690" fill="#ffffff" text-anchor="end" font-size="11">0.63x</text>
<rect x="78" y="694" width="233.4" height="11" rx="2" fill="#e3b341"/>
<line x1="311.4" y1="699.5" x2="326.8" y2="699.5" stroke="#8b949e" stroke-width="1" opacity="0.8"/>
<line x1="326.8" y1="696.0" x2="326.8" y2="703.0" stroke="#8b949e" stroke-width="1" opacity="0.8"/>
<text x="306.4" y="704" fill="#ffffff" text-anchor="end" font-size="11">1.76x</text>
<rect x="78" y="708" width="390.2" height="11" rx="2" fill="#79c0ff"/>
<line x1="468.2" y1="713.5" x2="492.6" y2="713.5" stroke="#8b949e" stroke-width="1" opacity="0.8"/>
<line x1="492.6" y1="710.0" x2="492.6" y2="717.0" stroke="#8b949e" stroke-width="1" opacity="0.8"/>
<text x="463.2" y="718" fill="#ffffff" text-anchor="end" font-size="11">2.95x</text>
<text x="68" y="767" fill="#8b949e" text-anchor="end" font-family="ui-monospace,SFMono-Regular,Consolas,monospace">adx</text>
<rect x="78" y="737" width="132.4" height="11" rx="2" fill="#9e6a03"/>
<line x1="210.4" y1="742.5" x2="217.3" y2="742.5" stroke="#8b949e" stroke-width="1" opacity="0.8"/>
<line x1="217.3" y1="739.0" x2="217.3" y2="746.0" stroke="#8b949e" stroke-width="1" opacity="0.8"/>
<text x="205.4" y="747" fill="#ffffff" text-anchor="end" font-size="11">1.00x</text>
<rect x="78" y="751" width="81.8" height="11" rx="2" fill="#1f6feb"/>
<line x1="159.8" y1="756.5" x2="166.6" y2="756.5" stroke="#8b949e" stroke-width="1" opacity="0.8"/>
<line x1="166.6" y1="753.0" x2="166.6" y2="760.0" stroke="#8b949e" stroke-width="1" opacity="0.8"/>
<text x="154.8" y="761" fill="#ffffff" text-anchor="end" font-size="11">0.62x</text>
<rect x="78" y="765" width="197.7" height="11" rx="2" fill="#e3b341"/>
<line x1="275.7" y1="770.5" x2="289.0" y2="770.5" stroke="#8b949e" stroke-width="1" opacity="0.8"/>
<line x1="289.0" y1="767.0" x2="289.0" y2="774.0" stroke="#8b949e" stroke-width="1" opacity="0.8"/>
<text x="270.7" y="775" fill="#ffffff" text-anchor="end" font-size="11">1.49x</text>
<rect x="78" y="779" width="399.6" height="11" rx="2" fill="#79c0ff"/>
<line x1="477.6" y1="784.5" x2="495.2" y2="784.5" stroke="#8b949e" stroke-width="1" opacity="0.8"/>
<line x1="495.2" y1="781.0" x2="495.2" y2="788.0" stroke="#8b949e" stroke-width="1" opacity="0.8"/>
<text x="472.6" y="789" fill="#ffffff" text-anchor="end" font-size="11">3.02x</text>
</svg>
